<mxfile host="app.diagrams.net" agent="Mozilla/5.0 (Windows NT 10.0; Win64; x64) AppleWebKit/537.36 (KHTML, like Gecko) Chrome/128.0.0.0 Safari/537.36" version="24.7.15">
  <diagram name="Page-1" id="13Od7mRpGdUhtEuCODGV">
    <mxGraphModel dx="2120" dy="835" grid="1" gridSize="10" guides="1" tooltips="1" connect="1" arrows="1" fold="1" page="1" pageScale="1" pageWidth="850" pageHeight="1100" math="0" shadow="0">
      <root>
        <mxCell id="0" />
        <mxCell id="1" parent="0" />
        <mxCell id="0cS1NhYvK6Jipr8Sd5Rn-1" value="Customer" style="rounded=1;whiteSpace=wrap;html=1;" vertex="1" parent="1">
          <mxGeometry x="20" y="550" width="120" height="60" as="geometry" />
        </mxCell>
        <mxCell id="0cS1NhYvK6Jipr8Sd5Rn-2" value="Authentication system" style="ellipse;whiteSpace=wrap;html=1;aspect=fixed;" vertex="1" parent="1">
          <mxGeometry x="80" y="190" width="80" height="80" as="geometry" />
        </mxCell>
        <mxCell id="0cS1NhYvK6Jipr8Sd5Rn-4" value="Search system" style="ellipse;whiteSpace=wrap;html=1;aspect=fixed;" vertex="1" parent="1">
          <mxGeometry x="280" y="370" width="80" height="80" as="geometry" />
        </mxCell>
        <mxCell id="0cS1NhYvK6Jipr8Sd5Rn-5" value="Cart system" style="ellipse;whiteSpace=wrap;html=1;aspect=fixed;" vertex="1" parent="1">
          <mxGeometry x="610" y="510" width="80" height="80" as="geometry" />
        </mxCell>
        <mxCell id="0cS1NhYvK6Jipr8Sd5Rn-6" value="Payment system" style="ellipse;whiteSpace=wrap;html=1;aspect=fixed;" vertex="1" parent="1">
          <mxGeometry x="400" y="920" width="80" height="80" as="geometry" />
        </mxCell>
        <mxCell id="0cS1NhYvK6Jipr8Sd5Rn-7" value="Third party payment system" style="ellipse;whiteSpace=wrap;html=1;aspect=fixed;" vertex="1" parent="1">
          <mxGeometry x="330" y="1110" width="80" height="80" as="geometry" />
        </mxCell>
        <mxCell id="0cS1NhYvK6Jipr8Sd5Rn-8" value="Personalization / Recommendations system" style="ellipse;whiteSpace=wrap;html=1;aspect=fixed;" vertex="1" parent="1">
          <mxGeometry x="705" y="370" width="110" height="110" as="geometry" />
        </mxCell>
        <mxCell id="0cS1NhYvK6Jipr8Sd5Rn-9" value="User Database" style="shape=partialRectangle;whiteSpace=wrap;html=1;left=0;right=0;fillColor=none;" vertex="1" parent="1">
          <mxGeometry x="500" y="10" width="120" height="60" as="geometry" />
        </mxCell>
        <mxCell id="0cS1NhYvK6Jipr8Sd5Rn-10" value="Product Database" style="shape=partialRectangle;whiteSpace=wrap;html=1;left=0;right=0;fillColor=none;" vertex="1" parent="1">
          <mxGeometry x="700" y="10" width="120" height="60" as="geometry" />
        </mxCell>
        <mxCell id="0cS1NhYvK6Jipr8Sd5Rn-11" value="Order cancellation&amp;nbsp;&lt;div&gt;system&lt;/div&gt;" style="ellipse;whiteSpace=wrap;html=1;aspect=fixed;" vertex="1" parent="1">
          <mxGeometry x="80" y="910" width="80" height="80" as="geometry" />
        </mxCell>
        <mxCell id="0cS1NhYvK6Jipr8Sd5Rn-12" value="Invoice system" style="ellipse;whiteSpace=wrap;html=1;aspect=fixed;" vertex="1" parent="1">
          <mxGeometry x="630" y="1090" width="80" height="80" as="geometry" />
        </mxCell>
        <mxCell id="0cS1NhYvK6Jipr8Sd5Rn-13" value="" style="endArrow=classic;html=1;rounded=0;exitX=0.114;exitY=-0.026;exitDx=0;exitDy=0;exitPerimeter=0;entryX=0;entryY=0.5;entryDx=0;entryDy=0;" edge="1" parent="1" source="0cS1NhYvK6Jipr8Sd5Rn-1" target="0cS1NhYvK6Jipr8Sd5Rn-2">
          <mxGeometry width="50" height="50" relative="1" as="geometry">
            <mxPoint x="50" y="520" as="sourcePoint" />
            <mxPoint x="100" y="470" as="targetPoint" />
          </mxGeometry>
        </mxCell>
        <mxCell id="0cS1NhYvK6Jipr8Sd5Rn-14" value="Gives user&amp;nbsp;&lt;div&gt;credentials&lt;/div&gt;" style="edgeLabel;html=1;align=center;verticalAlign=middle;resizable=0;points=[];" vertex="1" connectable="0" parent="0cS1NhYvK6Jipr8Sd5Rn-13">
          <mxGeometry x="-0.0887" y="2" relative="1" as="geometry">
            <mxPoint as="offset" />
          </mxGeometry>
        </mxCell>
        <mxCell id="0cS1NhYvK6Jipr8Sd5Rn-15" value="" style="endArrow=classic;html=1;rounded=0;exitX=0.5;exitY=1;exitDx=0;exitDy=0;entryX=0.583;entryY=0;entryDx=0;entryDy=0;entryPerimeter=0;" edge="1" parent="1" source="0cS1NhYvK6Jipr8Sd5Rn-2" target="0cS1NhYvK6Jipr8Sd5Rn-1">
          <mxGeometry width="50" height="50" relative="1" as="geometry">
            <mxPoint x="80" y="510" as="sourcePoint" />
            <mxPoint x="130" y="460" as="targetPoint" />
          </mxGeometry>
        </mxCell>
        <mxCell id="0cS1NhYvK6Jipr8Sd5Rn-16" value="Ack user if he/she&amp;nbsp;&lt;div&gt;succeed or failed&lt;/div&gt;" style="edgeLabel;html=1;align=center;verticalAlign=middle;resizable=0;points=[];" vertex="1" connectable="0" parent="0cS1NhYvK6Jipr8Sd5Rn-15">
          <mxGeometry x="-0.2185" relative="1" as="geometry">
            <mxPoint x="-1" as="offset" />
          </mxGeometry>
        </mxCell>
        <mxCell id="0cS1NhYvK6Jipr8Sd5Rn-17" value="" style="endArrow=classic;html=1;rounded=0;exitX=0.75;exitY=0;exitDx=0;exitDy=0;entryX=0.004;entryY=0.569;entryDx=0;entryDy=0;entryPerimeter=0;" edge="1" parent="1" source="0cS1NhYvK6Jipr8Sd5Rn-1" target="0cS1NhYvK6Jipr8Sd5Rn-4">
          <mxGeometry width="50" height="50" relative="1" as="geometry">
            <mxPoint x="130" y="540" as="sourcePoint" />
            <mxPoint x="180" y="490" as="targetPoint" />
          </mxGeometry>
        </mxCell>
        <mxCell id="0cS1NhYvK6Jipr8Sd5Rn-18" value="Search system" style="edgeLabel;html=1;align=center;verticalAlign=middle;resizable=0;points=[];" vertex="1" connectable="0" parent="0cS1NhYvK6Jipr8Sd5Rn-17">
          <mxGeometry x="-0.0768" y="-1" relative="1" as="geometry">
            <mxPoint as="offset" />
          </mxGeometry>
        </mxCell>
        <mxCell id="0cS1NhYvK6Jipr8Sd5Rn-19" value="Query&amp;nbsp;&lt;div&gt;System&lt;/div&gt;" style="ellipse;whiteSpace=wrap;html=1;aspect=fixed;" vertex="1" parent="1">
          <mxGeometry x="370" y="240" width="80" height="80" as="geometry" />
        </mxCell>
        <mxCell id="0cS1NhYvK6Jipr8Sd5Rn-21" value="" style="endArrow=classic;html=1;rounded=0;entryX=0;entryY=0;entryDx=0;entryDy=0;" edge="1" parent="1" source="0cS1NhYvK6Jipr8Sd5Rn-4" target="0cS1NhYvK6Jipr8Sd5Rn-8">
          <mxGeometry width="50" height="50" relative="1" as="geometry">
            <mxPoint x="280" y="510" as="sourcePoint" />
            <mxPoint x="350.71067811865476" y="460" as="targetPoint" />
          </mxGeometry>
        </mxCell>
        <mxCell id="0cS1NhYvK6Jipr8Sd5Rn-23" value="Check for recommendation&amp;nbsp;&lt;div&gt;for search product&lt;/div&gt;" style="edgeLabel;html=1;align=center;verticalAlign=middle;resizable=0;points=[];" vertex="1" connectable="0" parent="0cS1NhYvK6Jipr8Sd5Rn-21">
          <mxGeometry x="-0.2809" relative="1" as="geometry">
            <mxPoint x="20" y="-2" as="offset" />
          </mxGeometry>
        </mxCell>
        <mxCell id="0cS1NhYvK6Jipr8Sd5Rn-24" value="" style="endArrow=classic;html=1;rounded=0;exitX=0.008;exitY=0.633;exitDx=0;exitDy=0;exitPerimeter=0;entryX=0.797;entryY=0.859;entryDx=0;entryDy=0;entryPerimeter=0;" edge="1" parent="1" source="0cS1NhYvK6Jipr8Sd5Rn-8" target="0cS1NhYvK6Jipr8Sd5Rn-4">
          <mxGeometry width="50" height="50" relative="1" as="geometry">
            <mxPoint x="320" y="550" as="sourcePoint" />
            <mxPoint x="370" y="500" as="targetPoint" />
          </mxGeometry>
        </mxCell>
        <mxCell id="0cS1NhYvK6Jipr8Sd5Rn-25" value="Send personalized / recommended&lt;div&gt;&amp;nbsp;product list&lt;/div&gt;" style="edgeLabel;html=1;align=center;verticalAlign=middle;resizable=0;points=[];" vertex="1" connectable="0" parent="0cS1NhYvK6Jipr8Sd5Rn-24">
          <mxGeometry x="0.0247" relative="1" as="geometry">
            <mxPoint as="offset" />
          </mxGeometry>
        </mxCell>
        <mxCell id="0cS1NhYvK6Jipr8Sd5Rn-26" value="" style="endArrow=classic;html=1;rounded=0;exitX=0.743;exitY=0.079;exitDx=0;exitDy=0;exitPerimeter=0;entryX=0;entryY=0.5;entryDx=0;entryDy=0;" edge="1" parent="1" source="0cS1NhYvK6Jipr8Sd5Rn-4" target="0cS1NhYvK6Jipr8Sd5Rn-19">
          <mxGeometry width="50" height="50" relative="1" as="geometry">
            <mxPoint x="260" y="420" as="sourcePoint" />
            <mxPoint x="310" y="370" as="targetPoint" />
          </mxGeometry>
        </mxCell>
        <mxCell id="0cS1NhYvK6Jipr8Sd5Rn-27" value="Query for&amp;nbsp;&lt;div&gt;searched product&lt;/div&gt;" style="edgeLabel;html=1;align=center;verticalAlign=middle;resizable=0;points=[];" vertex="1" connectable="0" parent="0cS1NhYvK6Jipr8Sd5Rn-26">
          <mxGeometry x="0.0004" y="1" relative="1" as="geometry">
            <mxPoint as="offset" />
          </mxGeometry>
        </mxCell>
        <mxCell id="0cS1NhYvK6Jipr8Sd5Rn-28" value="" style="endArrow=classic;html=1;rounded=0;exitX=0.607;exitY=0.995;exitDx=0;exitDy=0;entryX=1;entryY=0.5;entryDx=0;entryDy=0;exitPerimeter=0;" edge="1" parent="1" source="0cS1NhYvK6Jipr8Sd5Rn-19" target="0cS1NhYvK6Jipr8Sd5Rn-4">
          <mxGeometry width="50" height="50" relative="1" as="geometry">
            <mxPoint x="410" y="430" as="sourcePoint" />
            <mxPoint x="460" y="380" as="targetPoint" />
          </mxGeometry>
        </mxCell>
        <mxCell id="0cS1NhYvK6Jipr8Sd5Rn-29" value="Give results for&amp;nbsp;&lt;div&gt;search products&lt;/div&gt;" style="edgeLabel;html=1;align=center;verticalAlign=middle;resizable=0;points=[];" vertex="1" connectable="0" parent="0cS1NhYvK6Jipr8Sd5Rn-28">
          <mxGeometry x="-0.1807" relative="1" as="geometry">
            <mxPoint as="offset" />
          </mxGeometry>
        </mxCell>
        <mxCell id="0cS1NhYvK6Jipr8Sd5Rn-31" value="" style="endArrow=classic;startArrow=classic;html=1;rounded=0;exitX=0.598;exitY=-0.026;exitDx=0;exitDy=0;exitPerimeter=0;entryX=0.25;entryY=1;entryDx=0;entryDy=0;" edge="1" parent="1" source="0cS1NhYvK6Jipr8Sd5Rn-19" target="0cS1NhYvK6Jipr8Sd5Rn-10">
          <mxGeometry width="50" height="50" relative="1" as="geometry">
            <mxPoint x="410" y="250" as="sourcePoint" />
            <mxPoint x="460" y="200" as="targetPoint" />
          </mxGeometry>
        </mxCell>
        <mxCell id="0cS1NhYvK6Jipr8Sd5Rn-32" value="Get searched&amp;nbsp;&lt;div&gt;product details&lt;/div&gt;" style="edgeLabel;html=1;align=center;verticalAlign=middle;resizable=0;points=[];" vertex="1" connectable="0" parent="0cS1NhYvK6Jipr8Sd5Rn-31">
          <mxGeometry x="-0.0572" y="2" relative="1" as="geometry">
            <mxPoint x="-84" y="53" as="offset" />
          </mxGeometry>
        </mxCell>
        <mxCell id="0cS1NhYvK6Jipr8Sd5Rn-34" value="" style="endArrow=classic;startArrow=classic;html=1;rounded=0;entryX=0.5;entryY=1;entryDx=0;entryDy=0;" edge="1" parent="1" source="0cS1NhYvK6Jipr8Sd5Rn-8" target="0cS1NhYvK6Jipr8Sd5Rn-9">
          <mxGeometry width="50" height="50" relative="1" as="geometry">
            <mxPoint x="670" y="260" as="sourcePoint" />
            <mxPoint x="720" y="210" as="targetPoint" />
          </mxGeometry>
        </mxCell>
        <mxCell id="0cS1NhYvK6Jipr8Sd5Rn-35" value="Get user data" style="edgeLabel;html=1;align=center;verticalAlign=middle;resizable=0;points=[];" vertex="1" connectable="0" parent="0cS1NhYvK6Jipr8Sd5Rn-34">
          <mxGeometry x="-0.0527" y="1" relative="1" as="geometry">
            <mxPoint as="offset" />
          </mxGeometry>
        </mxCell>
        <mxCell id="0cS1NhYvK6Jipr8Sd5Rn-36" value="" style="endArrow=classic;startArrow=classic;html=1;rounded=0;exitX=0.583;exitY=0.008;exitDx=0;exitDy=0;exitPerimeter=0;entryX=0.569;entryY=1.042;entryDx=0;entryDy=0;entryPerimeter=0;" edge="1" parent="1" source="0cS1NhYvK6Jipr8Sd5Rn-8" target="0cS1NhYvK6Jipr8Sd5Rn-10">
          <mxGeometry width="50" height="50" relative="1" as="geometry">
            <mxPoint x="730" y="360" as="sourcePoint" />
            <mxPoint x="780" y="310" as="targetPoint" />
          </mxGeometry>
        </mxCell>
        <mxCell id="0cS1NhYvK6Jipr8Sd5Rn-37" value="Get product data" style="edgeLabel;html=1;align=center;verticalAlign=middle;resizable=0;points=[];" vertex="1" connectable="0" parent="0cS1NhYvK6Jipr8Sd5Rn-36">
          <mxGeometry x="-0.085" relative="1" as="geometry">
            <mxPoint as="offset" />
          </mxGeometry>
        </mxCell>
        <mxCell id="0cS1NhYvK6Jipr8Sd5Rn-38" value="" style="endArrow=classic;html=1;rounded=0;exitX=0.5;exitY=1;exitDx=0;exitDy=0;entryX=1;entryY=0.25;entryDx=0;entryDy=0;" edge="1" parent="1" source="0cS1NhYvK6Jipr8Sd5Rn-4" target="0cS1NhYvK6Jipr8Sd5Rn-1">
          <mxGeometry width="50" height="50" relative="1" as="geometry">
            <mxPoint x="170" y="600" as="sourcePoint" />
            <mxPoint x="220" y="550" as="targetPoint" />
          </mxGeometry>
        </mxCell>
        <mxCell id="0cS1NhYvK6Jipr8Sd5Rn-39" value="Show search&amp;nbsp;&lt;div&gt;product results&lt;/div&gt;" style="edgeLabel;html=1;align=center;verticalAlign=middle;resizable=0;points=[];" vertex="1" connectable="0" parent="0cS1NhYvK6Jipr8Sd5Rn-38">
          <mxGeometry x="-0.0863" y="1" relative="1" as="geometry">
            <mxPoint as="offset" />
          </mxGeometry>
        </mxCell>
        <mxCell id="0cS1NhYvK6Jipr8Sd5Rn-40" value="" style="endArrow=classic;startArrow=classic;html=1;rounded=0;exitX=1;exitY=0;exitDx=0;exitDy=0;entryX=0.25;entryY=1;entryDx=0;entryDy=0;" edge="1" parent="1" source="0cS1NhYvK6Jipr8Sd5Rn-2" target="0cS1NhYvK6Jipr8Sd5Rn-9">
          <mxGeometry width="50" height="50" relative="1" as="geometry">
            <mxPoint x="200" y="190" as="sourcePoint" />
            <mxPoint x="250" y="140" as="targetPoint" />
          </mxGeometry>
        </mxCell>
        <mxCell id="0cS1NhYvK6Jipr8Sd5Rn-41" value="Verify user&amp;nbsp;&lt;div&gt;credentials&lt;/div&gt;" style="edgeLabel;html=1;align=center;verticalAlign=middle;resizable=0;points=[];" vertex="1" connectable="0" parent="0cS1NhYvK6Jipr8Sd5Rn-40">
          <mxGeometry x="-0.0689" y="1" relative="1" as="geometry">
            <mxPoint as="offset" />
          </mxGeometry>
        </mxCell>
        <mxCell id="0cS1NhYvK6Jipr8Sd5Rn-42" value="" style="endArrow=classic;html=1;rounded=0;exitX=1;exitY=0.5;exitDx=0;exitDy=0;entryX=0.5;entryY=0;entryDx=0;entryDy=0;" edge="1" parent="1" source="0cS1NhYvK6Jipr8Sd5Rn-1" target="0cS1NhYvK6Jipr8Sd5Rn-5">
          <mxGeometry width="50" height="50" relative="1" as="geometry">
            <mxPoint x="190" y="660" as="sourcePoint" />
            <mxPoint x="240" y="610" as="targetPoint" />
          </mxGeometry>
        </mxCell>
        <mxCell id="0cS1NhYvK6Jipr8Sd5Rn-43" value="Add / Update / Remove&amp;nbsp;&lt;div&gt;product to cart&lt;/div&gt;" style="edgeLabel;html=1;align=center;verticalAlign=middle;resizable=0;points=[];" vertex="1" connectable="0" parent="0cS1NhYvK6Jipr8Sd5Rn-42">
          <mxGeometry x="-0.0999" y="-2" relative="1" as="geometry">
            <mxPoint as="offset" />
          </mxGeometry>
        </mxCell>
        <mxCell id="0cS1NhYvK6Jipr8Sd5Rn-44" value="" style="endArrow=classic;html=1;rounded=0;exitX=0;exitY=0.5;exitDx=0;exitDy=0;entryX=1;entryY=0.75;entryDx=0;entryDy=0;" edge="1" parent="1" source="0cS1NhYvK6Jipr8Sd5Rn-5" target="0cS1NhYvK6Jipr8Sd5Rn-1">
          <mxGeometry width="50" height="50" relative="1" as="geometry">
            <mxPoint x="230" y="710" as="sourcePoint" />
            <mxPoint x="280" y="660" as="targetPoint" />
          </mxGeometry>
        </mxCell>
        <mxCell id="0cS1NhYvK6Jipr8Sd5Rn-45" value="Ack" style="edgeLabel;html=1;align=center;verticalAlign=middle;resizable=0;points=[];" vertex="1" connectable="0" parent="0cS1NhYvK6Jipr8Sd5Rn-44">
          <mxGeometry x="-0.059" y="2" relative="1" as="geometry">
            <mxPoint as="offset" />
          </mxGeometry>
        </mxCell>
        <mxCell id="0cS1NhYvK6Jipr8Sd5Rn-46" value="Order&amp;nbsp;&lt;div&gt;system&lt;/div&gt;" style="ellipse;whiteSpace=wrap;html=1;aspect=fixed;" vertex="1" parent="1">
          <mxGeometry x="520" y="720" width="80" height="80" as="geometry" />
        </mxCell>
        <mxCell id="0cS1NhYvK6Jipr8Sd5Rn-48" value="" style="endArrow=classic;html=1;rounded=0;exitX=0;exitY=1;exitDx=0;exitDy=0;entryX=0.719;entryY=0.07;entryDx=0;entryDy=0;entryPerimeter=0;" edge="1" parent="1" source="0cS1NhYvK6Jipr8Sd5Rn-5" target="0cS1NhYvK6Jipr8Sd5Rn-46">
          <mxGeometry width="50" height="50" relative="1" as="geometry">
            <mxPoint x="390" y="740" as="sourcePoint" />
            <mxPoint x="440" y="690" as="targetPoint" />
          </mxGeometry>
        </mxCell>
        <mxCell id="0cS1NhYvK6Jipr8Sd5Rn-49" value="Send user and&amp;nbsp;&lt;div&gt;product info&lt;/div&gt;" style="edgeLabel;html=1;align=center;verticalAlign=middle;resizable=0;points=[];" vertex="1" connectable="0" parent="0cS1NhYvK6Jipr8Sd5Rn-48">
          <mxGeometry x="-0.0487" y="-2" relative="1" as="geometry">
            <mxPoint as="offset" />
          </mxGeometry>
        </mxCell>
        <mxCell id="0cS1NhYvK6Jipr8Sd5Rn-50" value="" style="endArrow=classic;html=1;rounded=0;exitX=1;exitY=0.5;exitDx=0;exitDy=0;entryX=0.5;entryY=1;entryDx=0;entryDy=0;" edge="1" parent="1" source="0cS1NhYvK6Jipr8Sd5Rn-46" target="0cS1NhYvK6Jipr8Sd5Rn-5">
          <mxGeometry width="50" height="50" relative="1" as="geometry">
            <mxPoint x="410" y="750" as="sourcePoint" />
            <mxPoint x="460" y="700" as="targetPoint" />
          </mxGeometry>
        </mxCell>
        <mxCell id="0cS1NhYvK6Jipr8Sd5Rn-51" value="Ack" style="edgeLabel;html=1;align=center;verticalAlign=middle;resizable=0;points=[];" vertex="1" connectable="0" parent="0cS1NhYvK6Jipr8Sd5Rn-50">
          <mxGeometry x="-0.127" y="-1" relative="1" as="geometry">
            <mxPoint as="offset" />
          </mxGeometry>
        </mxCell>
        <mxCell id="0cS1NhYvK6Jipr8Sd5Rn-52" value="" style="endArrow=classic;html=1;rounded=0;exitX=0;exitY=1;exitDx=0;exitDy=0;entryX=0.591;entryY=0.016;entryDx=0;entryDy=0;entryPerimeter=0;" edge="1" parent="1" source="0cS1NhYvK6Jipr8Sd5Rn-46" target="0cS1NhYvK6Jipr8Sd5Rn-6">
          <mxGeometry width="50" height="50" relative="1" as="geometry">
            <mxPoint x="410" y="840" as="sourcePoint" />
            <mxPoint x="460" y="790" as="targetPoint" />
          </mxGeometry>
        </mxCell>
        <mxCell id="0cS1NhYvK6Jipr8Sd5Rn-53" value="Send payment&amp;nbsp;&lt;div&gt;details&lt;/div&gt;" style="edgeLabel;html=1;align=center;verticalAlign=middle;resizable=0;points=[];" vertex="1" connectable="0" parent="0cS1NhYvK6Jipr8Sd5Rn-52">
          <mxGeometry x="-0.1152" y="-2" relative="1" as="geometry">
            <mxPoint as="offset" />
          </mxGeometry>
        </mxCell>
        <mxCell id="0cS1NhYvK6Jipr8Sd5Rn-54" value="" style="endArrow=classic;html=1;rounded=0;exitX=0.955;exitY=0.402;exitDx=0;exitDy=0;exitPerimeter=0;entryX=0.763;entryY=0.96;entryDx=0;entryDy=0;entryPerimeter=0;" edge="1" parent="1" source="0cS1NhYvK6Jipr8Sd5Rn-6" target="0cS1NhYvK6Jipr8Sd5Rn-46">
          <mxGeometry width="50" height="50" relative="1" as="geometry">
            <mxPoint x="410" y="900" as="sourcePoint" />
            <mxPoint x="460" y="850" as="targetPoint" />
            <Array as="points" />
          </mxGeometry>
        </mxCell>
        <mxCell id="0cS1NhYvK6Jipr8Sd5Rn-55" value="Ack" style="edgeLabel;html=1;align=center;verticalAlign=middle;resizable=0;points=[];" vertex="1" connectable="0" parent="0cS1NhYvK6Jipr8Sd5Rn-54">
          <mxGeometry x="-0.1397" y="-1" relative="1" as="geometry">
            <mxPoint as="offset" />
          </mxGeometry>
        </mxCell>
        <mxCell id="0cS1NhYvK6Jipr8Sd5Rn-56" value="" style="endArrow=classic;html=1;rounded=0;exitX=0.75;exitY=1;exitDx=0;exitDy=0;" edge="1" parent="1" source="0cS1NhYvK6Jipr8Sd5Rn-1" target="0cS1NhYvK6Jipr8Sd5Rn-6">
          <mxGeometry width="50" height="50" relative="1" as="geometry">
            <mxPoint x="90" y="780" as="sourcePoint" />
            <mxPoint x="140" y="730" as="targetPoint" />
          </mxGeometry>
        </mxCell>
        <mxCell id="0cS1NhYvK6Jipr8Sd5Rn-57" value="Pay payable&amp;nbsp;&lt;div&gt;amount&lt;/div&gt;" style="edgeLabel;html=1;align=center;verticalAlign=middle;resizable=0;points=[];" vertex="1" connectable="0" parent="0cS1NhYvK6Jipr8Sd5Rn-56">
          <mxGeometry x="-0.555" y="2" relative="1" as="geometry">
            <mxPoint x="138" y="104" as="offset" />
          </mxGeometry>
        </mxCell>
        <mxCell id="0cS1NhYvK6Jipr8Sd5Rn-58" value="" style="endArrow=classic;html=1;rounded=0;exitX=0;exitY=0.5;exitDx=0;exitDy=0;entryX=0.567;entryY=1.031;entryDx=0;entryDy=0;entryPerimeter=0;" edge="1" parent="1" source="0cS1NhYvK6Jipr8Sd5Rn-6" target="0cS1NhYvK6Jipr8Sd5Rn-1">
          <mxGeometry width="50" height="50" relative="1" as="geometry">
            <mxPoint x="70" y="800" as="sourcePoint" />
            <mxPoint x="120" y="750" as="targetPoint" />
          </mxGeometry>
        </mxCell>
        <mxCell id="0cS1NhYvK6Jipr8Sd5Rn-59" value="Ack" style="edgeLabel;html=1;align=center;verticalAlign=middle;resizable=0;points=[];" vertex="1" connectable="0" parent="0cS1NhYvK6Jipr8Sd5Rn-58">
          <mxGeometry x="-0.0553" y="1" relative="1" as="geometry">
            <mxPoint as="offset" />
          </mxGeometry>
        </mxCell>
        <mxCell id="0cS1NhYvK6Jipr8Sd5Rn-60" value="" style="endArrow=classic;startArrow=classic;html=1;rounded=0;exitX=0.727;exitY=0.058;exitDx=0;exitDy=0;exitPerimeter=0;entryX=0.5;entryY=1;entryDx=0;entryDy=0;" edge="1" parent="1" source="0cS1NhYvK6Jipr8Sd5Rn-7" target="0cS1NhYvK6Jipr8Sd5Rn-6">
          <mxGeometry width="50" height="50" relative="1" as="geometry">
            <mxPoint x="300" y="930" as="sourcePoint" />
            <mxPoint x="350" y="880" as="targetPoint" />
          </mxGeometry>
        </mxCell>
        <mxCell id="0cS1NhYvK6Jipr8Sd5Rn-61" value="Use it if&amp;nbsp;&lt;div&gt;needed&lt;/div&gt;" style="edgeLabel;html=1;align=center;verticalAlign=middle;resizable=0;points=[];" vertex="1" connectable="0" parent="0cS1NhYvK6Jipr8Sd5Rn-60">
          <mxGeometry x="-0.0749" relative="1" as="geometry">
            <mxPoint as="offset" />
          </mxGeometry>
        </mxCell>
        <mxCell id="0cS1NhYvK6Jipr8Sd5Rn-63" value="" style="endArrow=classic;html=1;rounded=0;exitX=1;exitY=1;exitDx=0;exitDy=0;entryX=0.5;entryY=0;entryDx=0;entryDy=0;" edge="1" parent="1" source="0cS1NhYvK6Jipr8Sd5Rn-46" target="0cS1NhYvK6Jipr8Sd5Rn-12">
          <mxGeometry width="50" height="50" relative="1" as="geometry">
            <mxPoint x="470" y="880" as="sourcePoint" />
            <mxPoint x="520" y="830" as="targetPoint" />
          </mxGeometry>
        </mxCell>
        <mxCell id="0cS1NhYvK6Jipr8Sd5Rn-64" value="Send payable amount&amp;nbsp;&lt;div&gt;and product details&lt;/div&gt;" style="edgeLabel;html=1;align=center;verticalAlign=middle;resizable=0;points=[];" vertex="1" connectable="0" parent="0cS1NhYvK6Jipr8Sd5Rn-63">
          <mxGeometry x="-0.1488" relative="1" as="geometry">
            <mxPoint as="offset" />
          </mxGeometry>
        </mxCell>
        <mxCell id="0cS1NhYvK6Jipr8Sd5Rn-65" value="" style="endArrow=classic;html=1;rounded=0;" edge="1" parent="1" source="0cS1NhYvK6Jipr8Sd5Rn-6" target="0cS1NhYvK6Jipr8Sd5Rn-12">
          <mxGeometry width="50" height="50" relative="1" as="geometry">
            <mxPoint x="440" y="880" as="sourcePoint" />
            <mxPoint x="490" y="830" as="targetPoint" />
          </mxGeometry>
        </mxCell>
        <mxCell id="0cS1NhYvK6Jipr8Sd5Rn-66" value="Send transaction&amp;nbsp;&lt;div&gt;details&lt;/div&gt;" style="edgeLabel;html=1;align=center;verticalAlign=middle;resizable=0;points=[];" vertex="1" connectable="0" parent="0cS1NhYvK6Jipr8Sd5Rn-65">
          <mxGeometry x="-0.1111" y="1" relative="1" as="geometry">
            <mxPoint as="offset" />
          </mxGeometry>
        </mxCell>
        <mxCell id="0cS1NhYvK6Jipr8Sd5Rn-67" value="" style="endArrow=classic;html=1;rounded=0;exitX=1;exitY=0;exitDx=0;exitDy=0;entryX=1.007;entryY=0.62;entryDx=0;entryDy=0;entryPerimeter=0;" edge="1" parent="1" source="0cS1NhYvK6Jipr8Sd5Rn-12" target="0cS1NhYvK6Jipr8Sd5Rn-46">
          <mxGeometry width="50" height="50" relative="1" as="geometry">
            <mxPoint x="590" y="870" as="sourcePoint" />
            <mxPoint x="640" y="820" as="targetPoint" />
            <Array as="points">
              <mxPoint x="600" y="770" />
            </Array>
          </mxGeometry>
        </mxCell>
        <mxCell id="0cS1NhYvK6Jipr8Sd5Rn-68" value="Send invoice" style="edgeLabel;html=1;align=center;verticalAlign=middle;resizable=0;points=[];" vertex="1" connectable="0" parent="0cS1NhYvK6Jipr8Sd5Rn-67">
          <mxGeometry x="-0.2892" y="-3" relative="1" as="geometry">
            <mxPoint as="offset" />
          </mxGeometry>
        </mxCell>
        <mxCell id="0cS1NhYvK6Jipr8Sd5Rn-69" value="" style="endArrow=classic;html=1;rounded=0;exitX=0.317;exitY=1.017;exitDx=0;exitDy=0;exitPerimeter=0;" edge="1" parent="1" source="0cS1NhYvK6Jipr8Sd5Rn-1" target="0cS1NhYvK6Jipr8Sd5Rn-11">
          <mxGeometry width="50" height="50" relative="1" as="geometry">
            <mxPoint x="30" y="760" as="sourcePoint" />
            <mxPoint x="80" y="710" as="targetPoint" />
          </mxGeometry>
        </mxCell>
        <mxCell id="0cS1NhYvK6Jipr8Sd5Rn-74" value="Add order cancellation&amp;nbsp;&lt;div&gt;for products&lt;/div&gt;" style="edgeLabel;html=1;align=center;verticalAlign=middle;resizable=0;points=[];" vertex="1" connectable="0" parent="0cS1NhYvK6Jipr8Sd5Rn-69">
          <mxGeometry x="-0.0236" y="2" relative="1" as="geometry">
            <mxPoint x="22" as="offset" />
          </mxGeometry>
        </mxCell>
        <mxCell id="0cS1NhYvK6Jipr8Sd5Rn-70" value="" style="endArrow=classic;html=1;rounded=0;exitX=1;exitY=1;exitDx=0;exitDy=0;" edge="1" parent="1" source="0cS1NhYvK6Jipr8Sd5Rn-1" target="0cS1NhYvK6Jipr8Sd5Rn-46">
          <mxGeometry width="50" height="50" relative="1" as="geometry">
            <mxPoint x="230" y="660" as="sourcePoint" />
            <mxPoint x="280" y="610" as="targetPoint" />
          </mxGeometry>
        </mxCell>
        <mxCell id="0cS1NhYvK6Jipr8Sd5Rn-71" value="Place&amp;nbsp;&lt;div&gt;order&lt;/div&gt;" style="edgeLabel;html=1;align=center;verticalAlign=middle;resizable=0;points=[];" vertex="1" connectable="0" parent="0cS1NhYvK6Jipr8Sd5Rn-70">
          <mxGeometry x="-0.1874" relative="1" as="geometry">
            <mxPoint as="offset" />
          </mxGeometry>
        </mxCell>
        <mxCell id="0cS1NhYvK6Jipr8Sd5Rn-72" value="" style="endArrow=classic;html=1;rounded=0;exitX=0;exitY=0.5;exitDx=0;exitDy=0;entryX=0.901;entryY=1.059;entryDx=0;entryDy=0;entryPerimeter=0;" edge="1" parent="1" source="0cS1NhYvK6Jipr8Sd5Rn-46" target="0cS1NhYvK6Jipr8Sd5Rn-1">
          <mxGeometry width="50" height="50" relative="1" as="geometry">
            <mxPoint x="320" y="710" as="sourcePoint" />
            <mxPoint x="370" y="660" as="targetPoint" />
          </mxGeometry>
        </mxCell>
        <mxCell id="0cS1NhYvK6Jipr8Sd5Rn-73" value="Send&amp;nbsp;&lt;div&gt;invoice&lt;/div&gt;" style="edgeLabel;html=1;align=center;verticalAlign=middle;resizable=0;points=[];" vertex="1" connectable="0" parent="0cS1NhYvK6Jipr8Sd5Rn-72">
          <mxGeometry x="-0.2986" y="-1" relative="1" as="geometry">
            <mxPoint as="offset" />
          </mxGeometry>
        </mxCell>
        <mxCell id="0cS1NhYvK6Jipr8Sd5Rn-75" value="" style="endArrow=classic;html=1;rounded=0;exitX=0;exitY=0.5;exitDx=0;exitDy=0;entryX=0.075;entryY=1.017;entryDx=0;entryDy=0;entryPerimeter=0;" edge="1" parent="1" source="0cS1NhYvK6Jipr8Sd5Rn-11" target="0cS1NhYvK6Jipr8Sd5Rn-1">
          <mxGeometry width="50" height="50" relative="1" as="geometry">
            <mxPoint x="10" y="820" as="sourcePoint" />
            <mxPoint x="60" y="770" as="targetPoint" />
          </mxGeometry>
        </mxCell>
        <mxCell id="0cS1NhYvK6Jipr8Sd5Rn-76" value="Ack" style="edgeLabel;html=1;align=center;verticalAlign=middle;resizable=0;points=[];" vertex="1" connectable="0" parent="0cS1NhYvK6Jipr8Sd5Rn-75">
          <mxGeometry x="-0.1292" y="1" relative="1" as="geometry">
            <mxPoint as="offset" />
          </mxGeometry>
        </mxCell>
        <mxCell id="0cS1NhYvK6Jipr8Sd5Rn-77" value="" style="endArrow=classic;html=1;rounded=0;exitX=0.95;exitY=0.229;exitDx=0;exitDy=0;exitPerimeter=0;entryX=0.014;entryY=0.637;entryDx=0;entryDy=0;entryPerimeter=0;" edge="1" parent="1" source="0cS1NhYvK6Jipr8Sd5Rn-11" target="0cS1NhYvK6Jipr8Sd5Rn-46">
          <mxGeometry width="50" height="50" relative="1" as="geometry">
            <mxPoint x="210" y="920" as="sourcePoint" />
            <mxPoint x="260" y="870" as="targetPoint" />
          </mxGeometry>
        </mxCell>
        <mxCell id="0cS1NhYvK6Jipr8Sd5Rn-78" value="Send cancelled&amp;nbsp;&lt;div&gt;product details&lt;/div&gt;" style="edgeLabel;html=1;align=center;verticalAlign=middle;resizable=0;points=[];" vertex="1" connectable="0" parent="0cS1NhYvK6Jipr8Sd5Rn-77">
          <mxGeometry x="0.1907" y="1" relative="1" as="geometry">
            <mxPoint as="offset" />
          </mxGeometry>
        </mxCell>
        <mxCell id="0cS1NhYvK6Jipr8Sd5Rn-79" value="" style="endArrow=classic;html=1;rounded=0;exitX=0.089;exitY=0.802;exitDx=0;exitDy=0;exitPerimeter=0;entryX=1;entryY=0.5;entryDx=0;entryDy=0;" edge="1" parent="1" source="0cS1NhYvK6Jipr8Sd5Rn-46" target="0cS1NhYvK6Jipr8Sd5Rn-11">
          <mxGeometry width="50" height="50" relative="1" as="geometry">
            <mxPoint x="290" y="970" as="sourcePoint" />
            <mxPoint x="340" y="920" as="targetPoint" />
          </mxGeometry>
        </mxCell>
        <mxCell id="0cS1NhYvK6Jipr8Sd5Rn-80" value="Ack" style="edgeLabel;html=1;align=center;verticalAlign=middle;resizable=0;points=[];" vertex="1" connectable="0" parent="0cS1NhYvK6Jipr8Sd5Rn-79">
          <mxGeometry x="-0.4464" y="-1" relative="1" as="geometry">
            <mxPoint as="offset" />
          </mxGeometry>
        </mxCell>
      </root>
    </mxGraphModel>
  </diagram>
</mxfile>
